<?xml version="1.0" encoding="utf-8"?>
<!-- Generator: Adobe Illustrator 27.5.0, SVG Export Plug-In . SVG Version: 6.00 Build 0)  -->
<svg version="1.1" xmlns="http://www.w3.org/2000/svg" xmlns:xlink="http://www.w3.org/1999/xlink" x="0px" y="0px"
	 viewBox="0 0 500 500" style="enable-background:new 0 0 500 500;" xml:space="preserve">
<g id="BACKGROUND">
	<rect style="fill:#FFFFFF;" width="500" height="500"/>
</g>
<g id="OBJECTS">
	<g>
		<path style="fill:#9EEBFF;" d="M308.944,144.362c-23.097-23.229-55.082-37.611-90.429-37.611
			c-70.584,0-128.215,58.218-127.531,128.798c0.677,69.856,57.515,126.276,127.531,126.276c16.081,0,31.466-2.977,45.635-8.411
			c23.458-8.995,48.976-11.291,73.463-5.671c7.572,1.738,15.534,2.456,23.734,2c45.449-2.526,80.294-40.186,79.515-85.698
			c-0.673-39.291-27.811-70.77-62.765-80.076C352.002,177.022,327.984,163.511,308.944,144.362z"/>
		<g>
			<g>
				<path style="fill:#6EAA50;" d="M311.803,244.241c0-17.791-5.935-33.366-14.815-41.95c-3.18-3.074-4.834-7.387-4.846-11.81
					c-0.054-19.969-7.761-37.852-18.31-37.852c-13.766,0-21.848,29.241-16.795,53.139c0.718,3.396,0.486,6.949-0.928,10.119
					c-4.857,10.89-6.459,23.893-5.273,35.97c0.45,4.588-0.887,9.22-3.998,12.621c-7.404,8.095-12.104,20.15-12.104,33.623
					c0,24.38,15.378,44.145,34.348,44.145c22.88,0,38.619-27.767,33.344-54.785c-0.715-3.664-0.14-7.486,1.671-10.751
					C308.889,268.066,311.803,256.699,311.803,244.241z"/>
				<path style="fill:none;stroke:#5A915A;stroke-width:1.0926;stroke-miterlimit:10;" d="M273.268,176.892
					c0,0-0.351,27.006,8.805,62.716c7.62,29.72-19.007,86.614-30.529,123.906"/>
				<path style="fill:none;stroke:#5A915A;stroke-width:1.0926;stroke-miterlimit:10;" d="M256.436,280.548
					c0,0,14.168,14.658,8.686,44.084"/>
				<path style="fill:none;stroke:#5A915A;stroke-width:1.0926;stroke-miterlimit:10;" d="M294.433,297.273
					c0,0-25.518,16.624-32.262,35.535"/>
				<path style="fill:none;stroke:#5A915A;stroke-width:1.0926;stroke-miterlimit:10;" d="M266.383,235.586
					c0,0,16.123,23.429,12.702,45.314"/>
				<path style="fill:none;stroke:#5A915A;stroke-width:1.0926;stroke-miterlimit:10;" d="M303.589,234.908
					c0,0-20.335,13.714-21.612,32.327"/>
				<path style="fill:none;stroke:#5A915A;stroke-width:1.0926;stroke-miterlimit:10;" d="M266.383,210.172
					c0,0,9.064,3.208,11.919,14.487"/>
				<path style="fill:none;stroke:#5A915A;stroke-width:1.0926;stroke-miterlimit:10;" d="M287.566,201.118
					c0,0-13.421,16.734-6.71,33.545"/>
				<path style="fill:none;stroke:#5A915A;stroke-width:1.0926;stroke-miterlimit:10;" d="M266.383,186.505
					c0,0,7.331,4.244,8.12,11.013"/>
				<path style="fill:none;stroke:#5A915A;stroke-width:1.0926;stroke-miterlimit:10;" d="M279.561,180.554
					c0,0-5.762,7.149-5.059,15.107"/>
			</g>
			<g>
				<path style="fill:#4F9446;" d="M432.04,315.661c-3.569-5.159-3.574-11.984-0.21-17.278c10.389-16.351,13.991-36.692,5.01-42.746
					c-1.137-0.766-2.406-1.233-3.778-1.422c-4.294-0.59-7.349-4.509-7.163-8.839c0.466-10.834-2.22-19.02-7.54-20.523
					c-7.276-2.057-16.009,8.551-21.339,22.66c-1.722,4.558-7.043,6.615-11.327,4.292c-2.016-1.093-4.125-1.512-6.252-1.138
					c-9.848,1.734-14.983,18.115-14.284,34.895c0.233,5.592-2.43,11.004-7.211,13.915c-10.695,6.512-13.136,26.066-3.503,43.72
					c6.816,12.492,17.531,19.768,26.884,19.371c8.088,6.353,22.773,4.402,35.68-5.533
					C433.258,344.524,438.99,325.706,432.04,315.661z"/>
				<path style="fill:none;stroke:#4C7B56;stroke-width:1.0495;stroke-miterlimit:10;" d="M411.816,251.383
					c0,0-32.545,85.792-31.608,131.907"/>
				<path style="fill:none;stroke:#4C7B56;stroke-width:1.0495;stroke-miterlimit:10;" d="M386.884,276.297
					c0,0,9.854,14.633,7.74,27.262"/>
				<path style="fill:none;stroke:#4C7B56;stroke-width:1.0495;stroke-miterlimit:10;" d="M423.8,279.017
					c0,0-17.777-2.545-26.234,14.671"/>
				<path style="fill:none;stroke:#4C7B56;stroke-width:1.0495;stroke-miterlimit:10;" d="M369.831,319.414
					c0,0,17.442,15.947,13.821,29.551"/>
				<path style="fill:none;stroke:#4C7B56;stroke-width:1.0495;stroke-miterlimit:10;" d="M410.975,328.845
					c0,0-25.965,6.174-28.244,25.438"/>
				<path style="fill:none;stroke:#4C7B56;stroke-width:1.0495;stroke-miterlimit:10;" d="M399.651,311.572
					c0,0-8.56,4.503-9.967,10.164"/>
				<path style="fill:none;stroke:#4C7B56;stroke-width:1.0495;stroke-miterlimit:10;" d="M382.509,306.727
					c0,0,8.26,9.582,5.582,21.434"/>
				<path style="fill:none;stroke:#4C7B56;stroke-width:1.0495;stroke-miterlimit:10;" d="M402.191,260.785
					c0,0,4.126,5.868,2.531,10.64"/>
				<path style="fill:none;stroke:#4C7B56;stroke-width:1.0495;stroke-miterlimit:10;" d="M415.529,258.716
					c0,0-6.741,0.624-8.481,5.92"/>
			</g>
			<g>
				<path style="fill:#6EAA50;" d="M433.797,357.54c0.03-1.366-0.178-2.7-0.599-3.983c-0.805-2.46,0.693-5.107,3.2-5.753
					c1.938-0.5,3.914-1.149,5.894-1.954c13.038-5.296,21.304-15.261,18.462-22.259c-0.439-1.08-1.116-2.026-1.996-2.834
					c-2.378-2.184-2.702-5.824-0.77-8.41c4.632-6.203,6.231-12.345,3.504-15.775c-3.987-5.015-15.708-2.331-26.18,5.994
					c-34.637,27.539-51.847,57.885-51.847,57.885c2.516,7.611,12.46,13.447,24.479,13.712
					C422.014,374.472,433.589,367.03,433.797,357.54z"/>
				<path style="fill:none;stroke:#5A915A;stroke-width:0.8301;stroke-miterlimit:10;" d="M445.014,305.876
					c0,0-53.644,30.572-71.12,72.13"/>
				<path style="fill:none;stroke:#5A915A;stroke-width:0.8301;stroke-miterlimit:10;" d="M439.647,330.71
					c0,0-15.852-8.581-31.209,2.165"/>
				<path style="fill:none;stroke:#5A915A;stroke-width:0.8301;stroke-miterlimit:10;" d="M402.982,351.865
					c0,0-8.273-3.772-14.319,1.84"/>
				<path style="fill:none;stroke:#5A915A;stroke-width:0.8301;stroke-miterlimit:10;" d="M421.172,322.226
					c0,0,4.069-3.098,6.855-11.085"/>
			</g>
		</g>
		<g>
			<path style="fill:#E4F2F6;" d="M354.332,400.331c0-3.031,11.623-5.489,25.96-5.489c14.337,0,25.96,2.457,25.96,5.489
				c0,3.031-11.623,5.489-25.96,5.489C365.955,405.82,354.332,403.363,354.332,400.331z"/>
			<path style="fill:#E4F2F6;" d="M303.012,396.145c-7.702,0-14.794,0.428-20.443,1.148c-4.841,0.617-9.734,0.617-14.575,0
				c-5.649-0.72-12.741-1.148-20.443-1.148c-18.445,0-33.397,2.457-33.397,5.489c0,0.003,0.001,0.006,0.001,0.008
				c-12.701,0.155-22.79,2.549-22.79,5.48c0,3.031,10.79,5.489,24.1,5.489c3.936,0,17.069-0.639,22.105-3.194
				c3.064-1.554,6.462-2.296,9.898-2.294c0.028,0,0.055,0,0.083,0c6.829,0,13.178-0.337,18.467-0.915
				c6.161-0.673,12.366-0.673,18.527,0c5.289,0.578,11.639,0.915,18.467,0.915c18.445,0,33.397-2.457,33.397-5.489
				C336.409,398.602,321.456,396.145,303.012,396.145z"/>
			<g>
				<path style="fill:#FFB49B;" d="M307.411,221.326l-8.03-3.904c0,0-8.906-4.314-11.942-1.584
					c-3.036,2.731-8.777,9.814-3.258,8.903c5.518-0.912,10.292,0.742,12.631-1.258c2.339-2,8.528,1.546,8.528,1.546L307.411,221.326
					z"/>
				<path style="fill:#6E64C3;" d="M367.767,215.401l-31.5,8.49l-20.015-11.605c-7.435-2.132-15.275,2.823-16.028,10.521
					c-0.762,7.795,5.872,14.325,13.674,13.413l24.152,3.747l31.229-12.684c3.46-0.663,5.608-4.15,4.642-7.539l0,0
					C373.146,217.029,370.584,215.221,367.767,215.401z"/>
				<path style="fill:#823264;" d="M289.894,393.812c1.439,3.215-0.828,4.072-4.856,5.604c-4.029,1.531-7.141,2.05-7.536,1.011
					c-0.368-0.968,0.951-2.536,4.275-5.279C285.769,391.853,288.957,391.718,289.894,393.812z"/>
				<path style="fill:#FFB49B;" d="M289.757,388.328l-0.846,5.482c-0.058,0.899-0.804,1.598-1.705,1.598l0,0
					c-0.907,0-1.656-0.709-1.706-1.614l-0.669-6.997L289.757,388.328z"/>
				<path style="fill:#823264;" d="M313.614,394.334c-2.019,2.886,0.045,4.155,3.713,6.418c3.668,2.263,6.626,3.359,7.21,2.413
					c0.544-0.881-0.456-2.67-3.204-5.99C318.034,393.188,314.929,392.454,313.614,394.334z"/>
				<path style="fill:#FFB49B;" d="M313.879,389.057l0.694,5.503c0.033,0.9,0.76,1.619,1.66,1.644l0,0
					c0.907,0.025,1.675-0.663,1.75-1.567l0.862-6.976L313.879,389.057z"/>
				<path style="fill:#965028;" d="M309.82,184.296c-6.241-1.356-12.401,2.604-13.757,8.845c-0.148,0.681-0.221,1.359-0.247,2.031
					c-1.078,0.497-1.701,1.162-2.031,1.949c-5.181,3.988-8.026,10.702-6.785,17.428c0.215,1.164,0.538,2.28,0.957,3.338
					c1.271,3.213,1.546,6.791,0.317,10.02c-1.404,3.69-1.606,7.895-0.226,12.042c2.594,7.792,10.414,12.871,18.587,12.073
					c10.79-1.053,17.984-11.157,15.813-21.465c-0.286-1.359-0.729-2.644-1.291-3.851c1.78-2.346,3.103-5.096,3.77-8.163
					c1.412-6.497-0.378-12.935-4.302-17.696c-1.189-1.443-1.727-3.269-1.701-5.138C318.999,190.27,315.202,185.466,309.82,184.296z"
					/>
				<path style="fill:#FFB49B;" d="M302.905,260.529l-7.994,1.488c-15.67,9.72-15.67,33.349-15.67,33.349l5.591,91.43
					c1.967,0.709,2.767,2.148,4.925,1.532c3.339-20.056,9.084-58.748,13.148-86.581V260.529z"/>
				<path style="fill:#FFB49B;" d="M324.901,282.249c-2.199-14.723-9.02-22.366-9.02-22.366l-8.484-0.742l-3.616,41.339
					c3.483,30.596,10.085,88.572,10.099,88.578c2.24,0.922,4.964-1.371,4.966-1.395C319.059,385.576,327.072,296.79,324.901,282.249
					z"/>
				<path style="fill:#5046AF;" d="M327.865,312.659c-0.36-15.789,0.796-29.671-0.431-34.783
					c-3.8-15.835-15.755-23.515-15.755-23.515h-10.322l-9.486,3.949c-17.142,10.633-14.429,33.53-14.429,33.53v19.622
					C295.802,315.52,309.565,317.725,327.865,312.659z"/>
				<path style="fill:#0091C8;" d="M317.477,259.461c0,0,9.155-16.562,7.048-27.058c-1.299-6.471-6.302-18.476-18.858-18.474
					c-5.431,0.001-15.376,1.416-18.362,6.968c0,0-3.169,6.812-3.339,8.929c-0.71,8.807-0.127,18.613,7.905,28.485
					C291.871,258.311,304.995,266.254,317.477,259.461z"/>
				<path style="fill:#FFA587;" d="M308.138,215.992c0,2.181-1.768,3.948-3.948,3.948l0,0c-2.181,0-3.948-1.768-3.948-3.948v-13.029
					h7.896V215.992z"/>
				<path style="fill:#FFA587;" d="M296.526,201.322c0,1.138,0.912,2.061,2.036,2.061v-4.121
					C297.438,199.261,296.526,200.184,296.526,201.322z"/>
				<path style="fill:#FFA587;" d="M312.032,201.322c0,1.138-0.912,2.061-2.036,2.061v-4.121
					C311.12,199.261,312.032,200.184,312.032,201.322z"/>
				<path style="fill:#FFB49B;" d="M305.302,259.695c-1.428-0.368-2.471-0.633-3.24-0.826c-1.489-0.375-3.056-1.091-3.717-2.476
					c-0.197-0.413,1.059-3.115,0.233-2.963c-0.932,0.172-1.413,1.444-3.229,3.51c-1.061-0.231-2.427-0.494-3.881-0.66
					c-1.382-0.158-5.739-0.183-5.886,1.2c-0.227,2.155,4.519,6.311,6.6,6.914c1.869,0.542,8.422-0.531,8.422-0.531l4.971,1.033
					L305.302,259.695z"/>
				<path style="fill:#41B4E6;" d="M318.984,220.331c0,0,22.807,31.092,18.459,39.803c-3.147,6.306-17.113,9.107-25.861,10.262
					c-4.391,0.58-8.57-2.192-9.654-6.487c-0.029-0.116-0.058-0.232-0.087-0.349c-1.419-5.827,3.316-11.328,9.293-10.836
					c6.089,0.502,13.137,0.837,14.139-0.184l-9.016-19.856C314.32,228.418,315.431,223.385,318.984,220.331L318.984,220.331z"/>
				<path style="fill:#FFB49B;" d="M305.461,248.142c1.46-0.204,2.527-0.35,3.312-0.455c1.522-0.204,6.134-1.103,7.597-1.104
					c1.391-0.001,7.334,3.538,7.323,4.929c-0.017,2.167-1.737,1.774-3.902,1.686c-4.838-0.197-10.134-0.384-10.134-0.384
					l-5.056,0.465L305.461,248.142z"/>
				<path style="fill:#41B4E6;" d="M287.305,220.897c0,0-15.713,31.571-11.365,40.282c3.147,6.306,20.948,1.573,27.645,1.057
					c4.416-0.34,8.57-2.192,9.654-6.487c0.029-0.116,0.058-0.232,0.087-0.35c1.419-5.827-3.316-11.328-9.293-10.836
					c-6.089,0.502-17.457,7.678-18.459,6.657l4.457-17.971C291.536,227.865,290.858,223.951,287.305,220.897L287.305,220.897z"/>
				<path style="fill:#F5876E;" d="M300.241,210.048c0.275,0.248,0.57,0.479,0.897,0.67l1.763,1.03
					c0.912,0.533,2.043,0.524,2.947-0.023l1.643-0.994c0.229-0.138,0.442-0.295,0.645-0.463v-8.463h-7.896V210.048z"/>
				<path style="fill:#FFA587;" d="M307.492,209.571l-1.643,0.994c-0.904,0.547-2.035,0.555-2.947,0.023l-1.763-1.03
					c-1.68-0.981-2.713-2.78-2.713-4.726v-9.049h11.707v9.105C310.133,206.804,309.132,208.58,307.492,209.571z"/>
				<path style="fill:#965028;" d="M309.421,180.624c-2.297,0.065-4.342,1.128-5.721,2.769c-1.445,1.72-3.532,2.708-5.736,3.14
					c-0.026,0.005-0.052,0.01-0.078,0.016c-2.447,0.509-4.407,2.498-4.855,4.957c-0.059,0.326-0.093,0.648-0.104,0.965
					c-0.034,1.05-0.232,2.106-0.728,3.033c-0.231,0.431-0.362,0.917-0.362,1.434c0,1.799,1.556,3.258,3.476,3.258
					c0.796,0,1.526-0.254,2.11-0.678c0.535-0.389,1.184-0.557,1.846-0.561c1.446-0.009,2.781-0.515,3.85-1.375
					c1.489-1.199,3.417-1.801,5.305-1.5c0.398,0.064,0.806,0.097,1.223,0.097c4.371,0,7.9-3.606,7.775-8.005
					C317.304,184.06,313.534,180.508,309.421,180.624z"/>
				<path style="fill:#FFFFFF;" d="M301.561,205.651c0,1.558,1.263,2.822,2.822,2.822c1.558,0,2.822-1.263,2.822-2.822H301.561z"/>
				<path style="fill:#5046AF;" d="M375.599,203.053c-0.482,0.54-0.845,1.162-1.081,1.846c-0.767,2.221-2.978,3.71-5.418,3.463
					c-2.85-0.288-4.927-2.832-4.638-5.682c0.184-1.825,1.299-3.323,2.821-4.096c-0.972-1.089-1.514-2.555-1.356-4.123
					c0.3-2.963,2.945-5.123,5.908-4.823c2.963,0.3,5.123,2.945,4.823,5.908c-0.029,0.286-0.08,0.564-0.152,0.833
					c-0.214,0.806-0.199,1.645,0.042,2.443c0.162,0.538,0.225,1.114,0.165,1.71C376.613,201.51,376.205,202.374,375.599,203.053z"/>
				<g>
					<path style="fill:#41378C;" d="M393.171,386.399c3.445,0.821,2.74,3.153,1.495,7.303c-1.246,4.15-2.737,6.949-3.808,6.628
						c-0.997-0.299-1.44-2.311-1.592-6.641C389.084,388.489,390.927,385.864,393.171,386.399z"/>
					<path style="fill:#FFB49B;" d="M389.448,382.61l3.153,4.599c0.576,0.699,0.51,1.724-0.15,2.344l0,0
						c-0.665,0.624-1.701,0.62-2.361-0.009l-5.306-4.667L389.448,382.61z"/>
				</g>
				<path style="fill:#1E2D64;" d="M353.596,259.475c0,0-19.516,49.483-15.261,67.119c3.93,16.288,41.051,53.602,45.612,58.58
					c0.328,0.359,0.837,0.495,1.293,0.327c2.158-0.793,3.163-1.738,4.469-3.29c0.293-0.349,0.294-0.859,0.085-1.264
					c-2.935-5.674-27.845-49.352-27.905-57.297c-0.058-7.625,12.322-22.316,17.198-31.762c2.346-4.546,3.068-9.755,2.021-14.762l0,0
					c-2.153-10.295-11.236-17.667-21.754-17.656L353.596,259.475z"/>
				<path style="fill:#41378C;" d="M381.067,396.083c0.953,3.41-1.427,3.926-5.66,4.851c-4.233,0.925-7.405,0.978-7.643-0.113
					c-0.222-1.017,1.322-2.38,5.035-4.614C377.256,393.523,380.446,393.862,381.067,396.083z"/>
				<path style="fill:#FFB49B;" d="M374.946,390.246l0.922,5.499c0.07,0.902,0.829,1.595,1.734,1.584l0,0
					c0.912-0.012,1.655-0.734,1.694-1.645l0.581-7.043L374.946,390.246z"/>
				<path style="fill:#00558C;" d="M391.074,294.036c0,0,13.501-20.943-12.913-39.179l0,0c-11.71-0.402-21.074,9.634-19.849,21.287
					c3.153,29.986,9.306,83.345,16.008,113.543c0.071,0.321,0.315,0.577,0.631,0.668c1.956,0.562,3.163,0.629,5.008,0.17
					c0.36-0.09,0.618-0.412,0.657-0.78L391.074,294.036z"/>
				<path style="fill:#5046AF;" d="M353.021,261.748c0,0-8.651-16.274-7.222-26.941c0.881-6.576,4.365-20.506,16.961-21.323
					c8.401-0.545,24.802,5.429,24.586,16.177c-0.178,8.881-0.146,19.937-7.56,30.364
					C379.786,260.025,365.987,267.748,353.021,261.748z"/>
				<path style="fill:#FFA587;" d="M365.842,221.767L365.842,221.767c2.439,0.006,4.421-1.967,4.427-4.406l0.035-14.574
					l-8.833-0.021l-0.035,14.574C361.43,219.779,363.403,221.762,365.842,221.767z"/>
				<path style="fill:#F5876E;" d="M361.442,215.013c2.514-0.074,4.889-1.832,6.446-4.132c1.381-2.04,1.779-4.592,1.227-6.993l0,0
					l-7.646-0.21L361.442,215.013z"/>
				<path style="fill:#FFA587;" d="M362.26,212.928L362.26,212.928c3.614-0.237,8.175-4.923,7.939-8.536l-0.488-7.459l-13.192-0.872
					l0.595,9.187C357.349,208.862,360.68,213.032,362.26,212.928z"/>
				<path style="fill:#FFA587;" d="M372.621,201.982c0.085,1.304-0.89,2.43-2.179,2.514h-0.907l0.287-4.728
					C371.111,199.684,372.536,200.678,372.621,201.982z"/>
				<path style="fill:#5046AF;" d="M348.489,189.171c-0.05-1.359,0.704-2.618,1.925-3.214c1.22-0.596,2.676-0.416,3.716,0.457
					c1.691,1.42,3.935,2.315,5.687,1.372c2.305-1.24,4.876-1.801,7.471-1.461c0.011,0.001,0.022,0.003,0.033,0.004l0.082,0.011
					c2.075,0.279,3.953,1.513,4.862,3.399c0.51,1.057,0.732,2.119,0.722,3.132c-0.008,0.804,0.341,1.547,0.81,2.2
					c0.339,0.473,0.554,1.032,0.594,1.645c0.122,1.868-1.395,3.489-3.388,3.619c-0.827,0.054-1.603-0.16-2.238-0.561
					c-0.601-0.379-1.324-0.486-2.034-0.453c-1.471,0.069-2.862-0.364-4.01-1.169c-1.63-1.143-4.686-1.279-5.614-1.199
					C352.574,197.343,348.658,193.747,348.489,189.171C348.489,189.17,348.489,189.169,348.489,189.171z"/>
				<g>
					
						<rect x="344.112" y="238.857" transform="matrix(0.6882 0.7255 -0.7255 0.6882 305.4154 -190.3814)" style="fill:#D2F0FF;" width="60.194" height="42.584"/>
					<polygon style="fill:#AFE6FF;" points="379.475,296.638 338.049,252.967 377.954,256.597 					"/>
					<polygon style="fill:#FFFFFF;" points="369.841,264.293 368.944,223.66 410.37,267.332 					"/>
				</g>
				<path style="fill:#FFB49B;" d="M364.669,265.306l-5.3-1.621c-0.991-0.219-2.034-1.284-2.918-2.739
					c-4.943-8.147-1.871,1.286-2.05,1.501c-0.793,0.948-1.984,1.116-4.371,0.668c-1.998-0.375-3.272-0.966-3.272-0.966
					c-0.727,2.316,2.033,7.768,5.516,7.207l4.8-0.595l6.03,0.4L364.669,265.306z"/>
				<path style="fill:#6E64C3;" d="M377.883,221.652c2.729-1.748,6.367-0.813,7.907,2.039c5.369,9.942,16.379,31.081,16.539,37.518
					c0.209,8.433-16.321,15.097-29.973,16.508c-6.059,0.626-11.386-4.162-11.404-10.254c-0.001-0.214,0-0.428,0.003-0.642
					c0.061-5.496,4.527-9.952,10.019-10.147c6.13-0.217,13.438-0.916,14.509-2.989c0.817-1.583-6.114-17.23-9.669-25.036
					C374.664,226.127,375.549,223.146,377.883,221.652L377.883,221.652z"/>
			</g>
		</g>
		<g>
			<polygon style="fill:#FFB49B;" points="189.267,180.925 189.568,162.931 181.382,166.657 183.868,183.447 			"/>
			<path style="fill:#41378C;" d="M219.244,392.384c1.356,3.03-0.78,3.838-4.577,5.281c-3.797,1.443-6.73,1.932-7.102,0.953
				c-0.347-0.912,0.897-2.39,4.03-4.975C215.356,390.539,218.361,390.411,219.244,392.384z"/>
			<path style="fill:#FFB49B;" d="M225.992,338.616l-7.674,53.766c-0.055,0.847-0.758,1.506-1.606,1.506l0,0
				c-0.855,0-1.561-0.668-1.608-1.522l-2.719-55.233L225.992,338.616z"/>
			<path style="fill:#41378C;" d="M254.429,392.846c-1.658,2.876,0.384,3.897,4.013,5.721c3.63,1.824,6.497,2.61,6.968,1.674
				c0.438-0.872-0.648-2.469-3.5-5.361C258.484,391.407,255.509,390.973,254.429,392.846z"/>
			<path style="fill:#FFB49B;" d="M244.771,337.701l10.577,55.279c0.105,0.842,0.846,1.458,1.693,1.407l0,0
				c0.853-0.051,1.518-0.76,1.514-1.615l-0.914-55.716L244.771,337.701z"/>
			<path style="fill:#1C9585;" d="M242.356,340.113c6.133,1.173,12.139,1.228,17.999,0c-0.12-24.037-0.685-49.631-2.452-56.997
				c-3.581-14.924-11.274-22.162-11.274-22.162h-13.304l-0.028,0.096c-3.449,11.946-3.764,24.578-0.916,36.681L242.356,340.113z"/>
			<path style="fill:#39AE96;" d="M209.958,340.113c6.712,1.191,13.195,1.21,19.439,0c6.543-38.551,11.563-79.159,11.563-79.159
				l-19.646,0.237c-15.506,14.203-14.406,36.056-14.406,36.056L209.958,340.113z"/>
			<path style="fill:#FFD23C;" d="M179.827,180.908c7.233-6.044,18.279-0.796,18.384,8.629c0.073,6.592,0.691,13.429,2.698,16.456
				c3.883,5.857,25.135,12.582,25.135,12.582l-7.331,8.074c0,0-25.91-6.615-32.088-12.628c-4.297-4.182-8.168-14.097-10.405-20.72
				c-1.47-4.352-0.17-9.171,3.324-12.153C179.636,181.068,179.731,180.988,179.827,180.908z"/>
			<path style="fill:#FFB49B;" d="M172.12,171.35c1.025-1.013,4.064,0.463,6.004-2.174c1.725-2.346,5.956-0.678,5.866,1.139
				c-0.083,1.665-2.622,4.448-7.453,3.535C171.706,172.937,171.352,172.109,172.12,171.35z"/>
			<polygon style="fill:#FF640A;" points="245.137,221.012 223.019,221.012 223.019,194.991 245.137,188.868 			"/>
			<path style="fill:#A33925;" d="M245.137,195.099L245.137,195.099v-6.231l-22.118,6.123v26.022h19.623l0.81-23.199
				C243.492,196.674,244.133,195.641,245.137,195.099z"/>
			<path style="fill:#FFD23C;" d="M247.868,261.473c0,0,8.137-22.499,6.017-33.065c-1.307-6.514-6.344-18.599-18.984-18.597
				c-8.429,0.001-18.354,0-21.666,16.839c-1.717,8.728-0.308,24.904,7.778,34.84C221.013,261.49,235.303,268.31,247.868,261.473z"/>
			<path style="fill:#FFA587;" d="M233.446,218.001L233.446,218.001c-2.18,0-3.947-1.767-3.947-3.947V201.03h7.893v13.024
				C237.393,216.234,235.626,218.001,233.446,218.001z"/>
			<path style="fill:#F5876E;" d="M236.604,211.167L236.604,211.167c0.267,0,0.53-0.026,0.789-0.068V201.03H229.5v1.47
				C229.5,206.423,232.68,211.167,236.604,211.167z"/>
			<path style="fill:#FFB49B;" d="M237.575,209.084L237.575,209.084c-3.455,0-8.09-4.177-8.09-7.632v-7.131h12.511v7.131
				C241.997,204.907,239.086,209.084,237.575,209.084z"/>
			<path style="fill:#FFA587;" d="M226.887,198.235c0,1.544,1.237,2.796,2.763,2.796v-5.591
				C228.124,195.439,226.887,196.691,226.887,198.235z"/>
			<path style="fill:#FFA587;" d="M241.997,193.384h-10.544v2.319c-1.076,0.059-1.933,0.953-1.933,2.056
				c0,0.286,0.059,0.557,0.163,0.804c0.261-0.098,0.507-0.224,0.727-0.383c0.468-0.34,1.035-0.486,1.613-0.49
				c1.263-0.008,2.43-0.45,3.364-1.202c1.301-1.047,2.985-1.574,4.634-1.311c0.348,0.055,0.705,0.084,1.068,0.084
				c0.296,0,0.621-0.03,0.907-0.067V193.384z"/>
			<path style="fill:#FF640A;" d="M240.529,178.747c-2.287,0.065-4.324,1.123-5.697,2.758c-1.439,1.712-3.517,2.697-5.712,3.126
				c-0.026,0.005-0.052,0.01-0.078,0.016c-2.437,0.507-4.389,2.487-4.835,4.936c-0.059,0.324-0.093,0.645-0.103,0.96
				c-0.034,1.046-0.231,2.098-0.725,3.02c-0.23,0.429-0.36,0.913-0.36,1.428c0,1.792,1.55,3.244,3.462,3.244
				c0.793,0,1.52-0.253,2.101-0.675c0.533-0.387,1.179-0.554,1.838-0.559c1.44-0.009,2.77-0.513,3.834-1.37
				c1.483-1.193,3.402-1.793,5.282-1.493c0.396,0.063,0.803,0.096,1.217,0.096c4.353,0,7.867-3.59,7.742-7.971
				C248.379,182.168,244.625,178.63,240.529,178.747z"/>
			<path style="fill:#FFB49B;" d="M257.866,258.268c-1.411,0.46-2.441,0.799-3.197,1.05c-1.467,0.487-3.185,0.726-4.495-0.093
				c-0.391-0.244-0.785-3.218-1.404-2.642c-0.698,0.65-0.419,1.99-0.844,4.726c-1.026,0.378-2.328,0.893-3.652,1.538
				c-1.259,0.613-4.973,2.948-4.349,4.201c0.972,1.953,7.249,2.915,9.342,2.302c1.88-0.55,6.864-5.005,6.864-5.005l4.779-1.81
				L257.866,258.268z"/>
			<path style="fill:#FFD23C;" d="M245.528,213.485c12.897,7.205,31.099,22.007,32.576,28.358c1.265,5.44-3.725,15.087-8.679,22.934
				c-4.069,6.445-13.855,4.901-15.825-2.462c-0.032-0.119-0.063-0.239-0.095-0.359c-0.813-3.127,0.143-6.459,2.522-8.645
				c3.201-2.941,7.331-7.122,7.207-9.008c-0.219-3.313-6.966-9.261-11.757-13.088c-4.035-3.223-6.76-7.889-7.212-13.034
				C244.081,216.082,244.339,214.251,245.528,213.485z"/>
			<path style="fill:#FF640A;" d="M221.637,227.755L221.637,227.755v-32.028h6.631v25.398
				C228.268,224.786,225.299,227.755,221.637,227.755z"/>
			<circle style="fill:#FF640A;" cx="226.045" cy="195.727" r="4.408"/>
			<path style="fill:#55C7A6;" d="M213.502,171.026h-54.438c-12.149,0-21.998-9.849-21.998-21.998v-39.64
				c0-12.149,9.849-21.998,21.998-21.998h54.438c12.149,0,21.998,9.849,21.998,21.998v39.64
				C235.5,161.177,225.651,171.026,213.502,171.026z"/>
			<g>
				<path style="fill:#FFFFFF;" d="M186.225,111.545c8.522,0,14.498,4.408,14.498,12.637v16.36c0.392,3.135,2.547,4.8,4.899,4.8
					c5.387,0,6.367-8.817,6.367-14.694c0-17.242-8.032-27.332-25.176-27.332c-19.593,0-25.667,13.52-25.667,28.41
					c0,13.813,5.485,26.646,22.629,26.646c8.425,0,11.658-2.939,13.617-2.939c1.47,0,2.352,1.666,2.352,2.547
					c0,3.135-9.699,5.682-16.85,5.682c-14.302,0-27.527-9.894-27.527-31.838c0-18.907,9.503-33.994,31.544-33.994
					c19.692,0,30.859,11.56,30.859,31.838c0,10.776-3.428,20.573-12.637,20.573c-5.095,0-8.915-3.037-9.699-6.564
					c-3.331,3.625-6.466,5.78-12.05,5.78c-6.563,0-12.343-2.939-12.343-10.874c0-9.012,7.739-11.364,19.397-11.364h3.918v-1.763
					c0-5.29-2.84-7.837-9.208-7.837c-6.171,0-7.739,2.449-9.306,2.449c-1.47,0-2.45-2.155-2.45-3.331
					C173.391,113.797,180.249,111.545,186.225,111.545z M194.552,131.627h-3.526c-7.74,0-13.127,1.175-13.127,6.955
					c0,4.115,2.742,5.878,6.563,5.878c5.976,0,10.091-4.311,10.091-8.033V131.627z"/>
			</g>
		</g>
		<g>
			<path style="fill:#E4F2F6;" d="M124.508,396.145c0-3.031,7.673-5.489,17.137-5.489c9.465,0,17.137,2.457,17.137,5.489
				c0,3.031-7.673,5.489-17.137,5.489C132.18,401.633,124.508,399.176,124.508,396.145z"/>
			<g>
				<path style="fill:#FFB69E;" d="M202.746,224.264c-0.951,0.388-3.803,0.499-3.593-0.507c0.442-2.119,1.614-3.486,2.753-4.143
					c1.664-0.96,2.622-1.524,3.805-2.772c1.184-1.248,1.349,0.039,0.84,1.307c-0.509,1.268-1.719,2.465-2.068,4.14
					C204.299,223.17,203.555,223.934,202.746,224.264z"/>
				<path style="fill:#1C9585;" d="M142.478,326.701c9.132-4.306,23.824-11.191,26.244-12.063c4.806-1.732,6.675-18.103-3.806-16.23
					c-9.189,1.642-26.998,22.686-28.963,30.512c-0.447-1.287-0.886-2.584-1.317-3.886c-2.295-6.943,0.373-14.564,6.43-18.661
					c8.102-5.48,18.125-12.28,19.896-13.574c12.893-9.42,3.633-18.949-6.403-15.391c-8.975,3.182-22.754,26.94-23.751,35.166
					c-1.301-4.551-2.507-9.102-3.619-13.568c-1.141-4.585,0.454-9.414,4.116-12.4c8.792-7.17,18.952-14.864,20.436-17.297
					c2.197-3.603,5.269-25.232-5.423-20.021c-8.879,4.328-18.399,31.263-21.374,40.28c-0.875-3.85-1.674-7.582-2.402-11.136
					c-0.752-3.678,0.231-7.486,2.67-10.34c7.728-9.049,19.378-21.788,20.618-25.029c1.665-4.354,1.11-29.045-9.459-21.242
					c-9.121,6.733-14.105,40.125-15.3,49.155l0-0.002c-2.323-12.194-3.487-24.577-3.463-36.99c0.03-15.19-0.114-33.164-0.926-35.665
					c-1.439-4.434-14.52,4.206-17.843,16.916c-1.99,7.611,5.059,20.826,11.895,31.142c3.763,5.679,6.356,12.124,7.541,18.832
					c0.332,1.881,0.693,3.868,1.083,5.945c-4.588-8.406-19.407-34.301-29.289-37.055c-11.816-3.293-3.147,17.961-0.247,21.206
					c2.128,2.38,15.055,9.818,24.934,15.217c3.151,1.722,5.377,4.737,6.09,8.257c0.785,3.88,1.658,7.971,2.621,12.197
					c-6.135-6.622-26.51-27.785-36.539-28.017c-11.891-0.275,0.261,17.218,3.761,19.576c2.239,1.508,12.69,4.745,23.667,7.608
					c5.803,1.514,10.295,6.067,11.773,11.879c0.915,3.598,1.892,7.24,2.932,10.885c-3.402-7.114-27.058-21.983-36.258-20.972
					c-10.584,1.163-14.775,13.772,0.931,16.644c2.269,0.415,15.413,2.343,25.306,3.782c6.215,0.904,11.343,5.281,13.276,11.256
					c0.821,2.539,1.674,5.057,2.56,7.54c-5.008-5.406-28.933-19.116-37.89-17.248c-10.423,2.174-13.384,15.127,2.526,16.478
					c2.537,0.215,18.441,0.993,28.542,1.478c4.294,0.206,8.088,2.888,9.679,6.882c1.08,2.711,2.202,5.356,3.367,7.915
					c-4.597-4.66-22.7-11.302-29.275-9.775c-6.188,1.437,0.545,15.195,12.431,14.953c1.251-0.026,4.996-0.907,8.771-1.878
					c4.896-1.26,9.993,0.999,12.416,5.437c3.458,6.332,7.243,11.826,11.367,16.041c0.023-0.74,0.077-1.481,0.167-2.224
					c-4.401-4.815-8.413-11.181-12.046-18.492c-0.392-0.789-0.634-1.665-0.596-2.545c0.096-2.211,1.569-4.014,3.558-4.608
					c5.224-1.562,11.635-3.533,13.09-4.22c10.751-5.075,10.381-17.929,2.543-16.738c-6.553,0.996-18.731,16.219-21.013,23.028
					c-0.697-1.594-2.3-5.484-3.832-9.397C137.239,332.558,138.899,328.388,142.478,326.701z"/>
				<path style="fill:#FFA587;" d="M198.94,224.241c0,0,1.443-3.995,4.931-3.827c2.27,0.11,5.098-3.688,7.101-5.666
					c0.01-0.019,0.581-0.672,1.021-1.174c0.076-0.086,0.199-0.112,0.303-0.062c0.104,0.049,0.161,0.162,0.142,0.274
					c-0.417,2.428-2.817,6.946-3.951,8.404l-0.571,0.735c-1.187,1.527-2.814,2.653-4.661,3.227l-1.937,0.602l-1.103,3.034
					l-4.278-0.17L198.94,224.241z"/>
				<path style="fill:#55C7A6;" d="M198.221,227.114c-0.057-0.014-0.113-0.029-0.17-0.043c-3.791-0.987-7.718,1.025-9.161,4.667
					c-1.219,3.075-2.632,6.834-3.902,10.694l-6.673-14.366c-0.678-1.46-2.436-2.061-3.866-1.321
					c-1.152,0.595-1.753,1.892-1.456,3.154c5.697,24.278,4.865,33.413,10.659,34.396c8.029,1.362,13.765-14.885,19.56-26.048
					C205.525,233.79,203.089,228.343,198.221,227.114z"/>
				<path style="fill:none;stroke:#0073AA;stroke-width:1.0926;stroke-miterlimit:10;" d="M170.451,205.915v-6.48
					c0-3.976-3.223-7.2-7.2-7.2h-2.438"/>
				<path style="fill:#0073AA;" d="M167.915,208.376c-0.114,2.088,0.659,3.828,1.727,3.886c1.068,0.058,2.026-1.587,2.14-3.675
					c0.114-2.088-0.659-3.828-1.727-3.886C168.987,204.643,168.029,206.288,167.915,208.376z"/>
				<g>
					<path style="fill:#6EAA50;" d="M123.198,376.795c11.293-4.121,18.827-12.85,18.758-20.866c0,0-26.067-23.185-67.729-38.099
						c-12.595-4.509-24.556-3.274-26.715,2.758c-1.477,4.125,2.015,9.424,8.399,13.805c2.662,1.827,3.527,5.377,1.98,8.21
						c-0.573,1.049-0.909,2.162-0.977,3.326c-0.437,7.54,10.599,14.312,24.648,15.125c2.134,0.124,4.214,0.102,6.209-0.049
						c2.581-0.196,4.852,1.827,4.882,4.416c0.016,1.35,0.248,2.68,0.717,3.964C96.623,378.303,109.978,381.62,123.198,376.795z"/>
					<path style="fill:none;stroke:#5A915A;stroke-width:0.8301;stroke-miterlimit:10;" d="M66.109,324.089
						c0,0,59.732,11.49,89.889,44.626"/>
					<path style="fill:none;stroke:#5A915A;stroke-width:0.8301;stroke-miterlimit:10;" d="M79.189,345.87
						c0,0,12.243-13.229,30.243-8.004"/>
					<path style="fill:none;stroke:#5A915A;stroke-width:0.8301;stroke-miterlimit:10;" d="M120.713,354.088
						c0,0,6.617-6.236,14.149-2.87"/>
					<path style="fill:none;stroke:#5A915A;stroke-width:0.8301;stroke-miterlimit:10;" d="M93.946,331.888
						c0,0-4.85-1.622-10.06-8.286"/>
				</g>
				<path style="fill:#3C5A73;" d="M146.102,391.033c1.356,3.03-0.78,3.838-4.577,5.281c-3.797,1.443-6.73,1.932-7.102,0.953
					c-0.347-0.912,0.897-2.39,4.03-4.975C142.214,389.187,145.219,389.06,146.102,391.033z"/>
				<path style="fill:#FFB49B;" d="M145.973,385.865l-0.798,5.166c-0.055,0.847-0.758,1.506-1.607,1.506l0,0
					c-0.855,0-1.561-0.668-1.608-1.522l-0.63-6.595L145.973,385.865z"/>
				<path style="fill:#3C5A73;" d="M181.287,391.495c-1.659,2.876,0.384,3.897,4.013,5.721c3.63,1.824,6.497,2.61,6.968,1.674
					c0.438-0.872-0.648-2.469-3.5-5.361C185.342,390.056,182.367,389.622,181.287,391.495z"/>
				<path style="fill:#FFB49B;" d="M181.102,386.519l1.104,5.11c0.105,0.842,0.846,1.458,1.693,1.407l0,0
					c0.853-0.051,1.518-0.76,1.514-1.615l0.237-6.62L181.102,386.519z"/>
				<path style="fill:#FFB49B;" d="M173.487,259.603c0,0,7.693,7.238,11.274,22.162c3.581,14.924,0.817,105.063,0.817,105.063
					c-2.001,0.606-2.062,0.454-4.475-0.309l-23.014-108.882l2.095-18.034H173.487z"/>
				<path style="fill:#FFB49B;" d="M136.13,296.187c0,0-14.34-20.348,10.996-36.584l15.728,1.115c0,0-10.074,86.958-17.083,125.73
					c-2.225,0.635-2.179,1.127-4.207,0.395L136.13,296.187z"/>
				<path style="fill:#46738C;" d="M187.134,328.593c-0.223-20.7-0.854-40.498-2.373-46.828
					c-3.581-14.924-11.274-22.162-11.274-22.162h-13.304l-5.288,18.316l11.926,50.674
					C174.937,330.857,181.255,330.093,187.134,328.593z"/>
				<path style="fill:#55879B;" d="M136.093,328.593c7.284,1.996,14.566,1.757,21.847,0c5.7-35.197,9.878-68.99,9.878-68.99h-20.692
					c-25.335,16.236-13.359,36.293-13.359,36.293L136.093,328.593z"/>
				<path style="fill:#39AE96;" d="M166.696,264.689c3.332-0.613,6.023-3.066,7.083-6.283c2.202-6.687,5.83-19.161,4.869-26.237
					c-0.837-6.164-3.703-17.521-15.513-18.265c-7.876-0.496-23.388,8.941-23.167,19.017c0.15,6.834,0.169,15.041,4.024,23.161
					c1.716,3.615,4.84,6.362,8.665,7.537C156.308,264.739,161.379,265.667,166.696,264.689z"/>
				<path style="fill:#FFA587;" d="M160.125,223.089L160.125,223.089c-2.283-0.125-4.033-2.077-3.908-4.36l0.745-13.643l8.269,0.452
					l-0.745,13.643C164.36,221.464,162.408,223.214,160.125,223.089z"/>
				<path style="fill:#F5876E;" d="M164.485,219.18l0.419-7.682l-8.115-0.443l-0.084,1.54c-0.215,3.936,2.585,8.814,6.432,9.419
					C163.912,221.307,164.423,220.31,164.485,219.18z"/>
				<path style="fill:#FFB49B;" d="M164.788,219.954L164.788,219.954c-3.619-0.198-8.235-4.838-8.038-8.457l0.408-7.47l13.106,0.716
					l-0.408,7.47C169.658,215.831,166.37,220.04,164.788,219.954z"/>
				<path style="fill:#FFA587;" d="M154.211,207.977c-0.088,1.617,1.136,2.999,2.734,3.086l0.32-5.857
					C155.667,205.119,154.3,206.36,154.211,207.977z"/>
				<path style="fill:#FFA587;" d="M170.317,203.76l-11.045-0.603l-0.133,2.43c-1.13,0.001-2.079,0.887-2.142,2.044
					c-0.016,0.3,0.03,0.587,0.125,0.852c0.279-0.088,0.544-0.205,0.783-0.359c0.51-0.329,1.112-0.45,1.717-0.421
					c1.324,0.064,2.571-0.332,3.593-1.066c1.423-1.022,3.217-1.477,4.93-1.107c0.361,0.078,0.733,0.129,1.114,0.149
					c0.31,0.017,0.652,0.004,0.954-0.018L170.317,203.76z"/>
				<path style="fill:#FFDC64;" d="M170.71,188.201c-2.363-0.062-4.523,0.915-6.032,2.523c-1.581,1.685-3.779,2.583-6.068,2.903
					c-0.027,0.004-0.054,0.008-0.081,0.012c-2.542,0.386-4.667,2.319-5.265,4.819c-0.079,0.331-0.132,0.66-0.161,0.985
					c-0.094,1.076-0.357,2.15-0.918,3.074c-0.261,0.43-0.423,0.922-0.452,1.452c-0.101,1.848,1.416,3.433,3.388,3.541
					c0.818,0.045,1.582-0.175,2.205-0.578c0.572-0.369,1.247-0.505,1.927-0.473c1.485,0.072,2.886-0.373,4.032-1.197
					c1.597-1.147,3.61-1.658,5.532-1.243c0.405,0.087,0.823,0.144,1.25,0.168c4.489,0.245,8.316-3.26,8.434-7.785
					C178.614,192.171,174.941,188.311,170.71,188.201z"/>
				<g>
					<path style="fill:#FF640A;" d="M211.819,361.397l-10.027,6.395c-3.08,1.964-7.074,1.743-9.918-0.551
						c-15.095-12.172-25.846-29.031-30.517-47.851c-0.88-3.546,0.604-7.26,3.684-9.225l10.027-6.395
						c3.237-2.065,4.188-6.363,2.123-9.6l-18.802-29.483c-2.065-3.237-6.363-4.188-9.6-2.123h0
						c-11.28,7.194-18.338,19.51-18.65,32.885c-1.106,47.445,26.792,91.189,70.277,110.195c12.259,5.358,26.402,4.153,37.683-3.041
						l0,0c3.237-2.065,4.188-6.363,2.123-9.6l-18.802-29.482C219.355,360.283,215.057,359.333,211.819,361.397z"/>
					<path style="fill:#CD5014;" d="M171.504,306.044l3.564-2.273c3.237-2.065,4.188-6.363,2.123-9.6l-18.802-29.483
						c-2.065-3.237-6.363-4.188-9.6-2.123h0c-1.187,0.757-2.316,1.582-3.406,2.448L171.504,306.044z"/>
					<path style="fill:#CD5014;" d="M221.42,363.521c-2.065-3.238-6.363-4.188-9.6-2.123l-3.611,2.303l26.115,41.021
						c1.286-0.639,2.551-1.336,3.775-2.117c3.237-2.065,4.188-6.363,2.123-9.6L221.42,363.521z"/>
					<g>
						
							<line style="fill:none;stroke:#FFC305;stroke-width:3.2778;stroke-linecap:round;stroke-miterlimit:10;" x1="145.187" y1="264.93" x2="171.401" y2="306.107"/>
						
							<line style="fill:none;stroke:#FFDC64;stroke-width:3.2778;stroke-linecap:round;stroke-miterlimit:10;" x1="148.121" y1="269.538" x2="159.666" y2="287.673"/>
						
							<line style="fill:none;stroke:#FAF58C;stroke-width:3.2778;stroke-linecap:round;stroke-miterlimit:10;" x1="150.468" y1="273.225" x2="153.798" y2="278.457"/>
					</g>
					<g>
						
							<line style="fill:none;stroke:#FFC305;stroke-width:3.2778;stroke-linecap:round;stroke-miterlimit:10;" x1="207.971" y1="363.55" x2="234.185" y2="404.728"/>
						
							<line style="fill:none;stroke:#FFDC64;stroke-width:3.2778;stroke-linecap:round;stroke-miterlimit:10;" x1="210.904" y1="368.159" x2="222.45" y2="386.294"/>
						
							<line style="fill:none;stroke:#FAF58C;stroke-width:3.2778;stroke-linecap:round;stroke-miterlimit:10;" x1="213.251" y1="371.845" x2="216.582" y2="377.077"/>
					</g>
				</g>
				<path style="fill:#FFB49B;" d="M156.501,260.069c0,0,11.074,4.393,11.693,7.363s-1.141,10.793-1.141,10.793l-8.336-13.071
					l-3.745-0.471L156.501,260.069z"/>
				<path style="fill:#55C7A6;" d="M151.125,221.982c-2.03-1.496-4.872-1.164-6.503,0.759c-5.896,6.952-19.973,24.291-20.761,32.239
					c-0.78,7.87,14.212,15.246,26.877,17.512c5.621,1.006,10.933-3.102,11.373-8.796c0.016-0.2,0.029-0.4,0.042-0.6
					c0.324-5.142-3.542-9.619-8.664-10.181c-5.716-0.628-12.5-1.788-13.357-3.801c-0.876-2.056,7.717-14.317,12.128-20.398
					c1.543-2.128,1.072-5.089-1.035-6.66C151.191,222.031,151.158,222.007,151.125,221.982z"/>
				<g>
					<path style="fill:#0073AA;" d="M157.191,207.516c0,2.091-0.988,3.786-2.206,3.786c-1.218,0-2.206-1.695-2.206-3.786
						c0-2.091,0.988-3.786,2.206-3.786C156.203,203.73,157.191,205.425,157.191,207.516z"/>
					<rect x="153.53" y="203.73" style="fill:#0073AA;" width="1.455" height="7.572"/>
					<path style="fill:#0091C8;" d="M155.736,207.516c0,2.091-0.988,3.786-2.206,3.786c-1.218,0-2.206-1.695-2.206-3.786
						c0-2.091,0.988-3.786,2.206-3.786C154.749,203.73,155.736,205.425,155.736,207.516z"/>
					<path style="fill:#41B4E6;" d="M154.647,207.516c0,1.059-0.5,1.917-1.117,1.917c-0.617,0-1.801-0.858-1.801-1.917
						s1.184-1.917,1.801-1.917C154.147,205.599,154.647,206.457,154.647,207.516z"/>
				</g>
				<path style="fill:none;stroke:#41B4E6;stroke-width:1.0926;stroke-miterlimit:10;" d="M154.647,211.301v1.404
					c0,1.184,0.843,2.201,2.007,2.42l6.263,1.176"/>
				
					<line style="fill:none;stroke:#73C8F0;stroke-width:2.1852;stroke-linecap:round;stroke-miterlimit:10;" x1="161.38" y1="216.012" x2="164.211" y2="216.534"/>
				<path style="fill:none;stroke:#0073AA;stroke-width:1.0926;stroke-miterlimit:10;" d="M154.258,203.73v-4.043
					c0-4.116,3.337-7.452,7.452-7.452l0,0"/>
			</g>
		</g>
	</g>
</g>
<g id="DESIGNED_BY_FREEPIK">
	<g>
		<g id="XMLID_1_">
			<g id="XMLID_42_">
				<path id="XMLID_50_" style="fill:#A5B7C6;" d="M260.104,465.465c-0.432,0.443-0.803,0.931-1.108,1.453l-0.465-0.241
					c-0.067-0.298-0.349-0.503-0.659-0.466c-0.331,0.039-0.568,0.339-0.529,0.67c0.039,0.331,0.339,0.568,0.67,0.529
					c0.066-0.008,0.127-0.026,0.184-0.052l0.451,0.234c-0.251,0.554-0.433,1.139-0.539,1.744l0.746,0.132
					c0.23-1.306,0.85-2.507,1.792-3.473L260.104,465.465z"/>
				<path id="XMLID_49_" style="fill:#A5B7C6;" d="M265.592,463.163c-0.171,0-0.341,0.006-0.51,0.017l-0.074-0.626
					c0.188-0.149,0.296-0.389,0.266-0.645c-0.046-0.393-0.402-0.674-0.795-0.628c-0.393,0.046-0.674,0.402-0.628,0.795
					c0.03,0.254,0.189,0.461,0.404,0.564l0.074,0.624c-0.714,0.116-1.403,0.332-2.06,0.646l0.327,0.684
					c0.934-0.447,1.942-0.673,2.995-0.673c0.496,0,0.993,0.053,1.475,0.158l0.161-0.741
					C266.692,463.222,266.142,463.163,265.592,463.163z"/>
				<path id="XMLID_48_" style="fill:#A5B7C6;" d="M272.194,465.711c0.331-0.04,0.566-0.341,0.526-0.672
					c-0.04-0.331-0.341-0.566-0.672-0.526c-0.309,0.038-0.535,0.304-0.53,0.609l-0.416,0.363c-0.418-0.43-0.889-0.813-1.408-1.139
					l-0.404,0.641c1.134,0.715,2.021,1.726,2.563,2.925l0.69-0.313c-0.251-0.554-0.568-1.072-0.942-1.545l0.402-0.351
					C272.065,465.716,272.129,465.719,272.194,465.711z"/>
				<path id="XMLID_47_" style="fill:#A5B7C6;" d="M265.044,473.372c-0.386,0.023-0.775,0.035-1.157,0.035
					c-0.88,0-1.733-0.061-2.478-0.179c-0.39-0.062-0.846-0.155-1.27-0.292c1.046,1.861,3.069,3.125,5.388,3.125
					c2.855,0,5.262-1.916,5.95-4.504c-0.682,0.449-1.505,0.825-2.459,1.123C267.839,473.047,266.463,473.286,265.044,473.372z"/>
				<path id="XMLID_43_" style="fill:#A5B7C6;" d="M265.592,464.68c-3.352,0-6.08,2.666-6.08,5.943c0,0.426,0.046,0.849,0.137,1.261
					c0.673,0.483,2.706,0.89,5.348,0.731c2.879-0.173,5.297-0.957,6.672-2.159c-0.006-0.195-0.021-0.39-0.045-0.582
					C271.244,466.913,268.65,464.68,265.592,464.68z M263.432,471.194c-1.02,0-1.85-0.83-1.85-1.85c0-1.02,0.83-1.85,1.85-1.85
					c1.02,0,1.85,0.83,1.85,1.85C265.282,470.365,264.452,471.194,263.432,471.194z M268.17,470.286c-0.75,0-1.36-0.61-1.36-1.36
					s0.61-1.361,1.36-1.361c0.75,0,1.361,0.61,1.361,1.361S268.92,470.286,268.17,470.286z"/>
			</g>
			<path id="XMLID_40_" style="fill:#A5B7C6;" d="M281.595,466.547c-0.295-0.116-0.805-0.309-1.382-0.237
				c-0.551,0.069-0.844,0.341-0.844,1.007v0.866h2.228v1.717h-2.228v5.455h-1.932v-5.455h-1.34v-1.717h1.34v-0.888
				c0-1.68,0.896-2.783,2.568-2.783c0.643,0,1.157,0.122,1.59,0.308L281.595,466.547z"/>
			<path id="XMLID_334_" style="fill:#A5B7C6;" d="M286.298,469.879c-0.177-0.03-0.358-0.046-0.526-0.046
				c-0.895,0-1.51,0.548-1.51,1.614v3.908h-1.932v-7.172h1.873v0.785c0.451-0.673,1.14-0.977,2.021-0.977
				c0.414,0,0.848,0.128,1.094,0.337L286.298,469.879z"/>
			<path id="XMLID_38_" style="fill:#A5B7C6;" d="M293.965,471.757c0,0.222-0.015,0.489-0.037,0.651h-5.085
				c0.207,1.036,0.933,1.488,1.843,1.488c0.622,0,1.295-0.252,1.813-0.688l1.133,1.243c-0.814,0.748-1.85,1.088-3.057,1.088
				c-2.198,0-3.723-1.495-3.723-3.753c0-2.258,1.48-3.797,3.627-3.797C292.544,467.99,293.958,469.522,293.965,471.757z
				 M288.851,471.091h3.175c-0.177-0.918-0.733-1.436-1.562-1.436C289.554,469.655,289.021,470.203,288.851,471.091z"/>
			<path id="XMLID_25_" style="fill:#A5B7C6;" d="M301.618,471.757c0,0.222-0.015,0.489-0.037,0.651h-5.085
				c0.207,1.036,0.932,1.488,1.843,1.488c0.622,0,1.295-0.252,1.814-0.688l1.132,1.243c-0.814,0.748-1.85,1.088-3.057,1.088
				c-2.198,0-3.723-1.495-3.723-3.753c0-2.258,1.48-3.797,3.627-3.797C300.197,467.99,301.611,469.522,301.618,471.757z
				 M296.504,471.091h3.175c-0.178-0.918-0.733-1.436-1.562-1.436C297.207,469.655,296.674,470.203,296.504,471.091z"/>
			<path id="XMLID_22_" style="fill:#A5B7C6;" d="M309.964,471.764c0,2.154-1.495,3.775-3.471,3.775
				c-0.962,0-1.643-0.378-2.109-0.933v3.708h-1.924v-10.133h1.887v0.792c0.466-0.585,1.155-0.984,2.139-0.984
				C308.469,467.99,309.964,469.61,309.964,471.764z M304.287,471.764c0,1.132,0.747,1.976,1.843,1.976
				c1.14,0,1.85-0.881,1.85-1.976c0-1.095-0.711-1.976-1.85-1.976C305.035,469.788,304.287,470.632,304.287,471.764z"/>
			<path id="XMLID_17_" style="fill:#A5B7C6;" d="M313.067,465.836c0,0.696-0.54,1.229-1.236,1.229
				c-0.696,0-1.229-0.533-1.229-1.229c0-0.696,0.533-1.243,1.229-1.243C312.527,464.592,313.067,465.14,313.067,465.836z
				 M312.809,475.354h-1.932v-7.172h1.932V475.354z"/>
			<path id="XMLID_320_" style="fill:#A5B7C6;" d="M316.032,470.736l2.702-2.554h2.368l-3.479,3.375l3.501,3.797h-2.376
				l-2.716-2.901v2.901H314.1v-10.658h1.932V470.736z"/>
		</g>
		<g>
			<path style="fill:#A5B7C6;" d="M184.412,475.289v-1.055c-0.527,0.718-1.391,1.23-2.387,1.23c-1.846,0-3.149-1.406-3.149-3.706
				c0-2.256,1.289-3.721,3.149-3.721c0.952,0,1.816,0.469,2.387,1.245v-3.765h1.099v9.77H184.412z M184.412,473.37v-3.208
				c-0.395-0.615-1.245-1.143-2.124-1.143c-1.421,0-2.27,1.172-2.27,2.739c0,1.567,0.85,2.724,2.27,2.724
				C183.168,474.483,184.017,473.986,184.412,473.37z"/>
			<path style="fill:#A5B7C6;" d="M186.932,471.744c0-2.051,1.465-3.706,3.486-3.706c2.139,0,3.398,1.67,3.398,3.794v0.279h-5.727
				c0.088,1.333,1.025,2.446,2.549,2.446c0.805,0,1.626-0.322,2.182-0.894l0.527,0.718c-0.703,0.703-1.655,1.084-2.812,1.084
				C188.44,475.465,186.932,473.956,186.932,471.744z M190.403,468.947c-1.509,0-2.256,1.274-2.314,2.358h4.643
				C192.718,470.25,192.015,468.947,190.403,468.947z"/>
			<path style="fill:#A5B7C6;" d="M194.607,474.351l0.571-0.791c0.469,0.542,1.362,1.011,2.329,1.011c1.084,0,1.67-0.513,1.67-1.216
				c0-1.714-4.38-0.659-4.38-3.281c0-1.098,0.952-2.036,2.636-2.036c1.201,0,2.051,0.454,2.622,1.026l-0.513,0.762
				c-0.424-0.513-1.201-0.894-2.109-0.894c-0.967,0-1.567,0.483-1.567,1.113c0,1.552,4.38,0.527,4.38,3.281
				c0,1.187-0.952,2.138-2.783,2.138C196.306,475.465,195.325,475.113,194.607,474.351z"/>
			<path style="fill:#A5B7C6;" d="M201.477,466.471c0-0.41,0.337-0.747,0.732-0.747c0.41,0,0.747,0.337,0.747,0.747
				c0,0.41-0.337,0.732-0.747,0.732C201.814,467.203,201.477,466.881,201.477,466.471z M201.667,475.289v-7.075h1.099v7.075H201.667
				z"/>
			<path style="fill:#A5B7C6;" d="M204.582,477.105l0.556-0.82c0.586,0.703,1.289,0.967,2.3,0.967c1.172,0,2.27-0.571,2.27-2.124
				v-1.011c-0.513,0.718-1.377,1.26-2.373,1.26c-1.845,0-3.149-1.377-3.149-3.662c0-2.27,1.289-3.677,3.149-3.677
				c0.952,0,1.802,0.469,2.373,1.245v-1.069h1.098v6.87c0,2.344-1.641,3.076-3.369,3.076
				C206.237,478.16,205.417,477.926,204.582,477.105z M209.709,473.253v-3.091c-0.381-0.615-1.23-1.143-2.109-1.143
				c-1.421,0-2.27,1.128-2.27,2.695c0,1.553,0.849,2.695,2.27,2.695C208.478,474.41,209.328,473.868,209.709,473.253z"/>
			<path style="fill:#A5B7C6;" d="M217.413,475.289v-4.629c0-1.245-0.63-1.641-1.582-1.641c-0.865,0-1.685,0.527-2.095,1.099v5.17
				h-1.099v-7.075h1.099v1.025c0.498-0.586,1.465-1.201,2.519-1.201c1.48,0,2.256,0.747,2.256,2.285v4.966H217.413z"/>
			<path style="fill:#A5B7C6;" d="M219.932,471.744c0-2.051,1.465-3.706,3.486-3.706c2.139,0,3.398,1.67,3.398,3.794v0.279h-5.727
				c0.088,1.333,1.025,2.446,2.549,2.446c0.806,0,1.626-0.322,2.183-0.894l0.527,0.718c-0.703,0.703-1.655,1.084-2.812,1.084
				C221.441,475.465,219.932,473.956,219.932,471.744z M223.404,468.947c-1.509,0-2.256,1.274-2.314,2.358h4.643
				C225.718,470.25,225.015,468.947,223.404,468.947z"/>
			<path style="fill:#A5B7C6;" d="M233.35,475.289v-1.055c-0.527,0.718-1.392,1.23-2.388,1.23c-1.846,0-3.149-1.406-3.149-3.706
				c0-2.256,1.289-3.721,3.149-3.721c0.952,0,1.817,0.469,2.388,1.245v-3.765h1.098v9.77H233.35z M233.35,473.37v-3.208
				c-0.396-0.615-1.245-1.143-2.124-1.143c-1.421,0-2.27,1.172-2.27,2.739c0,1.567,0.849,2.724,2.27,2.724
				C232.105,474.483,232.954,473.986,233.35,473.37z"/>
			<path style="fill:#A5B7C6;" d="M239.692,475.289v-9.77h1.098v3.765c0.572-0.776,1.421-1.245,2.388-1.245
				c1.845,0,3.149,1.465,3.149,3.721c0,2.299-1.304,3.706-3.149,3.706c-0.996,0-1.86-0.513-2.388-1.23v1.055H239.692z
				 M242.9,474.483c1.436,0,2.285-1.157,2.285-2.724c0-1.568-0.85-2.739-2.285-2.739c-0.864,0-1.728,0.527-2.109,1.143v3.208
				C241.171,473.986,242.036,474.483,242.9,474.483z"/>
			<path style="fill:#A5B7C6;" d="M247.528,477.061c0.161,0.073,0.425,0.117,0.601,0.117c0.483,0,0.805-0.161,1.055-0.747
				l0.469-1.069l-2.959-7.148h1.187l2.358,5.8l2.344-5.8h1.201l-3.545,8.51c-0.425,1.025-1.143,1.421-2.08,1.435
				c-0.234,0-0.601-0.044-0.806-0.103L247.528,477.061z"/>
		</g>
	</g>
</g>
</svg>
